<svg xmlns="http://www.w3.org/2000/svg" height="575pt" version="1.1" viewBox="1 -163 575.96 575" width="575pt">
<g id="surface1">
<path d="M 9.597656 221.113281 L 55.890625 221.113281 C 71.632812 248.566406 106.652344 258.058594 134.105469 242.3125 C 142.929688 237.253906 150.246094 229.933594 155.308594 221.113281 L 420.691406 221.113281 C 436.425781 248.5625 471.4375 258.058594 498.886719 242.324219 C 507.800781 237.214844 515.175781 229.800781 520.242188 220.863281 C 521.332031 220.671875 522.382812 220.292969 523.34375 219.738281 L 571.34375 190.9375 C 574.230469 189.203125 576 186.082031 576 182.710938 L 576 96.3125 C 575.976562 95.179688 575.746094 94.0625 575.328125 93.007812 C 575.222656 92.722656 575.105469 92.453125 574.972656 92.175781 C 574.839844 91.898438 574.78125 91.628906 574.625 91.367188 L 548.542969 47.890625 L 555.792969 33.40625 C 558.160156 28.660156 556.234375 22.894531 551.492188 20.527344 C 550.636719 20.101562 549.726562 19.804688 548.785156 19.648438 L 499.410156 11.410156 L 475.976562 7.511719 C 361.035156 -11.328125 243.082031 7.996094 140.160156 62.53125 L 111.859375 77.632812 L 68.660156 87.230469 C 39.292969 93.699219 14.429688 113.109375 1.035156 140.03125 C 0.363281 141.359375 0.0078125 142.824219 0 144.3125 L 0 211.511719 C 0 216.8125 4.296875 221.113281 9.597656 221.113281 Z M 140.753906 207.671875 C 132.230469 227.039062 109.621094 235.832031 90.253906 227.308594 C 70.886719 218.785156 62.09375 196.175781 70.617188 176.808594 C 79.140625 157.441406 101.75 148.648438 121.117188 157.171875 C 135.046875 163.300781 144.027344 177.09375 144 192.3125 C 143.984375 197.601562 142.875 202.832031 140.746094 207.671875 Z M 505.554688 207.671875 C 497.03125 227.039062 474.421875 235.832031 455.054688 227.308594 C 435.6875 218.785156 426.894531 196.175781 435.417969 176.808594 C 443.941406 157.441406 466.550781 148.648438 485.917969 157.171875 C 499.847656 163.300781 508.828125 177.09375 508.800781 192.3125 C 508.785156 197.601562 507.675781 202.832031 505.546875 207.671875 Z M 556.800781 125.113281 L 532.800781 125.113281 L 518.398438 105.910156 L 556.800781 105.910156 Z M 363.398438 20.472656 C 399.988281 18.511719 436.683594 20.527344 472.835938 26.492188 L 477.878906 27.335938 L 428.023438 77.113281 L 355.292969 77.113281 Z M 432 96.3125 C 434.546875 96.3125 436.988281 95.300781 438.785156 93.5 L 501.117188 31.15625 L 532.800781 36.445312 L 528.957031 44.019531 C 527.492188 46.957031 527.628906 50.441406 529.324219 53.253906 L 549.445312 86.710938 L 499.199219 86.710938 C 493.894531 86.710938 489.597656 91.011719 489.597656 96.3125 C 489.597656 98.390625 490.273438 100.410156 491.519531 102.070312 L 520.320312 140.472656 C 522.132812 142.890625 524.976562 144.3125 528 144.3125 L 556.800781 144.3125 L 556.800781 177.277344 L 528 194.585938 C 528 193.828125 528.046875 193.070312 528.046875 192.3125 C 528.046875 160.5 502.257812 134.710938 470.449219 134.710938 C 438.636719 134.710938 412.847656 160.5 412.847656 192.3125 C 412.867188 195.1875 413.113281 198.058594 413.578125 200.894531 C 413.625 201.230469 413.578125 201.578125 413.65625 201.914062 L 337.46875 201.914062 L 352.550781 96.3125 Z M 343.804688 21.816406 L 335.902344 77.113281 L 153.648438 77.113281 C 212.835938 46.492188 277.425781 27.710938 343.804688 21.816406 Z M 19.199219 163.511719 L 38.398438 163.511719 L 38.398438 144.3125 L 20.609375 144.3125 C 31.839844 124.757812 50.78125 110.839844 72.796875 105.96875 L 116.253906 96.3125 L 333.117188 96.3125 L 318.074219 201.910156 L 162.390625 201.910156 C 162.390625 201.574219 162.390625 201.230469 162.46875 200.894531 C 162.929688 198.054688 163.171875 195.1875 163.199219 192.308594 C 163.199219 160.5 137.410156 134.710938 105.597656 134.710938 C 73.789062 134.710938 48 160.5 48 192.308594 C 48.019531 195.1875 48.265625 198.054688 48.730469 200.894531 C 48.777344 201.230469 48.730469 201.574219 48.804688 201.910156 L 19.199219 201.910156 Z M 19.199219 163.511719 " style=" stroke:none;fill-rule:nonzero;fill:rgb(0%,0%,0%);fill-opacity:1;" />
<path d="M 249.597656 115.511719 L 288 115.511719 L 288 134.710938 L 249.597656 134.710938 Z M 249.597656 115.511719 " style=" stroke:none;fill-rule:nonzero;fill:rgb(0%,0%,0%);fill-opacity:1;" />
</g>
</svg>