<svg xmlns="http://www.w3.org/2000/svg" height="575pt" version="1.1" viewBox="0 -153 575.958 575" width="575pt">
<g id="surface1">
<path d="M 566.398438 29.289062 L 528 29.289062 C 522.699219 29.289062 518.402344 33.589844 518.402344 38.890625 L 518.402344 51.246094 L 505.976562 23.289062 C 499.796875 9.433594 486.054688 0.503906 470.878906 0.488281 L 228.144531 0.488281 C 214.1875 0.480469 201.320312 8.042969 194.542969 20.246094 L 157.324219 87.234375 L 35.960938 94.816406 C 15.753906 96.132812 0.0273438 112.890625 0 133.140625 L 0 202.089844 C 0 207.390625 4.296875 211.6875 9.601562 211.6875 L 29.566406 211.6875 C 34.835938 248.378906 68.851562 273.847656 105.539062 268.578125 C 135.03125 264.34375 158.195312 241.175781 162.429688 211.6875 L 365.566406 211.6875 C 370.835938 248.378906 404.851562 273.847656 441.539062 268.578125 C 471.027344 264.34375 494.195312 241.175781 498.429688 211.6875 L 528 211.6875 C 533.300781 211.6875 537.597656 207.390625 537.597656 202.089844 L 537.597656 163.6875 L 566.398438 163.6875 C 571.699219 163.6875 575.996094 159.390625 575.996094 154.089844 L 575.996094 38.890625 C 576 33.585938 571.703125 29.289062 566.398438 29.289062 Z M 96 250.089844 C 69.488281 250.089844 48 228.597656 48 202.089844 C 48 175.578125 69.488281 154.089844 96 154.089844 C 122.507812 154.089844 144 175.578125 144 202.089844 C 143.96875 228.585938 122.496094 250.058594 96 250.089844 Z M 144 155.136719 L 143.921875 155.058594 C 143.335938 154.464844 142.722656 153.90625 142.109375 153.339844 C 141.214844 152.496094 140.324219 151.652344 139.382812 150.855469 C 138.71875 150.289062 138.027344 149.761719 137.335938 149.222656 C 136.378906 148.484375 135.417969 147.761719 134.457031 147.070312 C 133.726562 146.5625 132.988281 146.113281 132.230469 145.59375 C 131.269531 144.949219 130.222656 144.328125 129.1875 143.742188 C 128.410156 143.289062 127.621094 142.867188 126.824219 142.445312 C 125.757812 141.898438 124.683594 141.378906 123.589844 140.890625 C 122.773438 140.515625 121.957031 140.148438 121.132812 139.8125 C 120 139.351562 118.839844 138.949219 117.675781 138.546875 C 116.84375 138.257812 116.015625 137.960938 115.160156 137.710938 C 113.933594 137.347656 112.683594 137.050781 111.4375 136.753906 C 110.609375 136.558594 109.804688 136.339844 108.96875 136.175781 C 107.566406 135.898438 106.136719 135.707031 104.699219 135.523438 C 103.988281 135.425781 103.285156 135.292969 102.566406 135.226562 C 100.414062 135.015625 98.21875 134.890625 96 134.890625 C 93.78125 134.890625 91.582031 135.015625 89.421875 135.226562 C 88.703125 135.292969 88.003906 135.425781 87.292969 135.523438 C 85.851562 135.703125 84.410156 135.898438 83.019531 136.175781 C 82.183594 136.339844 81.378906 136.558594 80.550781 136.753906 C 79.304688 137.050781 78.054688 137.347656 76.828125 137.710938 C 75.972656 137.960938 75.148438 138.257812 74.3125 138.546875 C 73.148438 138.949219 71.988281 139.351562 70.855469 139.8125 C 70.03125 140.148438 69.214844 140.515625 68.398438 140.890625 C 67.304688 141.378906 66.230469 141.847656 65.164062 142.445312 C 64.367188 142.867188 63.578125 143.289062 62.800781 143.742188 C 61.765625 144.328125 60.757812 144.949219 59.757812 145.59375 C 59 146.074219 58.261719 146.554688 57.53125 147.070312 C 56.570312 147.761719 55.613281 148.484375 54.652344 149.222656 C 53.960938 149.761719 53.269531 150.289062 52.605469 150.855469 C 51.648438 151.652344 50.773438 152.496094 49.878906 153.339844 C 49.265625 153.90625 48.652344 154.464844 48.066406 155.058594 C 47.105469 156.019531 46.28125 156.980469 45.40625 157.9375 C 44.917969 158.503906 44.445312 159.042969 43.9375 159.617188 C 42.921875 160.867188 41.96875 162.164062 41.058594 163.460938 C 40.800781 163.84375 40.5 164.1875 40.242188 164.574219 C 39.089844 166.28125 38.019531 168.046875 37.027344 169.863281 C 36.738281 170.378906 36.507812 170.929688 36.238281 171.457031 C 35.554688 172.78125 34.882812 174.117188 34.320312 175.488281 C 34.011719 176.21875 33.753906 176.96875 33.453125 177.714844 C 32.984375 178.925781 32.496094 180.136719 32.109375 181.382812 C 31.839844 182.210938 31.621094 183.0625 31.390625 183.910156 C 31.054688 185.109375 30.726562 186.296875 30.429688 187.519531 C 30.226562 188.417969 30.074219 189.324219 29.910156 190.242188 C 29.777344 190.972656 29.59375 191.683594 29.488281 192.421875 L 19.199219 192.421875 L 19.199219 133.144531 C 19.179688 122.988281 27.066406 114.578125 37.199219 113.941406 L 144 107.308594 Z M 422.398438 19.6875 L 470.878906 19.6875 C 478.46875 19.6875 485.347656 24.160156 488.429688 31.09375 L 513.226562 86.890625 L 422.402344 86.890625 L 422.402344 19.6875 Z M 307.199219 19.6875 L 403.199219 19.6875 L 403.199219 86.890625 L 307.199219 86.890625 Z M 288 192.488281 L 163.199219 192.488281 L 163.199219 106.089844 L 288 106.089844 Z M 288 86.890625 L 179.519531 86.890625 L 211.375 29.566406 C 214.757812 23.476562 221.175781 19.695312 228.144531 19.6875 L 288 19.6875 Z M 381.417969 157.988281 C 380.925781 158.550781 380.457031 159.089844 379.949219 159.667969 C 378.929688 160.914062 377.980469 162.210938 377.066406 163.507812 C 376.808594 163.890625 376.511719 164.238281 376.253906 164.621094 C 375.101562 166.332031 374.027344 168.09375 373.035156 169.910156 C 372.746094 170.429688 372.519531 170.976562 372.25 171.503906 C 371.566406 172.828125 370.894531 174.164062 370.328125 175.535156 C 370.023438 176.265625 369.761719 177.015625 369.464844 177.761719 C 368.996094 178.972656 368.503906 180.183594 368.121094 181.429688 C 367.851562 182.257812 367.628906 183.109375 367.402344 183.957031 C 367.066406 185.15625 366.738281 186.34375 366.441406 187.566406 C 366.238281 188.464844 366.085938 189.371094 365.921875 190.289062 C 365.789062 191.019531 365.605469 191.730469 365.5 192.46875 L 307.199219 192.46875 L 307.199219 106.089844 L 403.199219 106.089844 L 403.199219 141.40625 C 402.507812 141.734375 401.847656 142.097656 401.164062 142.445312 C 400.480469 142.789062 399.578125 143.289062 398.800781 143.742188 C 397.765625 144.328125 396.757812 144.949219 395.757812 145.59375 C 395 146.074219 394.261719 146.554688 393.53125 147.070312 C 392.570312 147.761719 391.613281 148.484375 390.652344 149.222656 C 389.960938 149.761719 389.269531 150.289062 388.605469 150.855469 C 387.648438 151.652344 386.773438 152.496094 385.878906 153.339844 C 385.265625 153.90625 384.652344 154.464844 384.066406 155.058594 C 383.15625 156.007812 382.292969 156.96875 381.417969 157.988281 Z M 432 250.089844 C 405.488281 250.089844 384 228.597656 384 202.089844 C 384 175.578125 405.488281 154.089844 432 154.089844 C 458.511719 154.089844 480 175.578125 480 202.089844 C 479.96875 228.585938 458.496094 250.058594 432 250.089844 Z M 518.398438 154.089844 L 518.398438 192.488281 L 498.519531 192.488281 C 498.414062 191.75 498.230469 191.039062 498.097656 190.308594 C 497.933594 189.351562 497.78125 188.484375 497.578125 187.582031 C 497.308594 186.363281 496.984375 185.175781 496.617188 183.972656 C 496.386719 183.128906 496.167969 182.273438 495.898438 181.449219 C 495.496094 180.199219 495.023438 178.992188 494.554688 177.78125 C 494.257812 177.03125 493.996094 176.285156 493.691406 175.554688 C 493.09375 174.183594 492.421875 172.847656 491.769531 171.523438 C 491.5 170.996094 491.269531 170.449219 490.984375 169.929688 C 489.992188 168.117188 488.917969 166.355469 487.765625 164.640625 C 487.507812 164.257812 487.210938 163.910156 486.949219 163.527344 C 485.992188 162.210938 485.03125 160.914062 484.070312 159.6875 C 483.601562 159.109375 483.109375 158.570312 482.601562 158.003906 C 481.726562 157.046875 480.863281 156.019531 479.941406 155.125 C 479.355469 154.53125 478.742188 153.972656 478.128906 153.40625 C 477.234375 152.5625 476.34375 151.71875 475.402344 150.921875 C 474.738281 150.355469 474.046875 149.828125 473.355469 149.289062 C 472.398438 148.550781 471.4375 147.828125 470.476562 147.140625 C 469.746094 146.628906 469.007812 146.179688 468.25 145.660156 C 467.289062 145.019531 466.242188 144.394531 465.207031 143.808594 C 464.429688 143.355469 463.640625 142.933594 462.84375 142.511719 C 461.777344 141.964844 460.703125 141.445312 459.609375 140.957031 C 458.792969 140.582031 457.976562 140.21875 457.152344 139.882812 C 456.019531 139.421875 454.859375 139.015625 453.695312 138.613281 C 452.863281 138.328125 452.035156 138.027344 451.179688 137.777344 C 449.953125 137.414062 448.703125 137.117188 447.457031 136.820312 C 446.628906 136.628906 445.824219 136.40625 444.988281 136.242188 C 443.585938 135.964844 442.15625 135.773438 440.714844 135.589844 C 440.007812 135.492188 439.304688 135.359375 438.585938 135.292969 C 436.417969 135.015625 434.21875 134.890625 432 134.890625 C 429.78125 134.890625 427.582031 135.015625 425.421875 135.226562 C 424.703125 135.292969 424.003906 135.425781 423.292969 135.523438 L 422.398438 135.648438 L 422.398438 106.089844 L 518.398438 106.089844 Z M 556.800781 144.488281 L 537.601562 144.488281 L 537.601562 48.488281 L 556.800781 48.488281 Z M 556.800781 144.488281 " style=" stroke:none;fill-rule:nonzero;fill:rgb(0%,0%,0%);fill-opacity:1;" />
<path d="M 230.398438 125.289062 L 268.800781 125.289062 L 268.800781 144.488281 L 230.398438 144.488281 Z M 230.398438 125.289062 " style=" stroke:none;fill-rule:nonzero;fill:rgb(0%,0%,0%);fill-opacity:1;" />
<path d="M 96 173.289062 C 80.09375 173.289062 67.199219 186.183594 67.199219 202.089844 C 67.199219 217.996094 80.09375 230.890625 96 230.890625 C 111.90625 230.890625 124.800781 217.996094 124.800781 202.089844 C 124.800781 186.183594 111.90625 173.289062 96 173.289062 Z M 96 211.6875 C 90.699219 211.6875 86.398438 207.390625 86.398438 202.089844 C 86.398438 196.789062 90.699219 192.488281 96 192.488281 C 101.300781 192.488281 105.597656 196.789062 105.597656 202.089844 C 105.601562 207.390625 101.300781 211.6875 96 211.6875 Z M 96 211.6875 " style=" stroke:none;fill-rule:nonzero;fill:rgb(0%,0%,0%);fill-opacity:1;" />
<path d="M 432 173.289062 C 416.09375 173.289062 403.199219 186.183594 403.199219 202.089844 C 403.199219 217.996094 416.09375 230.890625 432 230.890625 C 447.90625 230.890625 460.800781 217.996094 460.800781 202.089844 C 460.800781 186.183594 447.90625 173.289062 432 173.289062 Z M 432 211.6875 C 426.699219 211.6875 422.398438 207.390625 422.398438 202.089844 C 422.398438 196.789062 426.699219 192.488281 432 192.488281 C 437.300781 192.488281 441.601562 196.789062 441.601562 202.089844 C 441.601562 207.390625 437.300781 211.6875 432 211.6875 Z M 432 211.6875 " style=" stroke:none;fill-rule:nonzero;fill:rgb(0%,0%,0%);fill-opacity:1;" />
</g>
</svg>